<svg width="32" height="32" viewBox="0 0 32 32" fill="none" xmlns="http://www.w3.org/2000/svg">
  <circle cx="16" cy="16" r="14" fill="url(#gradient)" stroke="#ffffff" stroke-width="1"/>
  <path d="M16 8C16 7.44772 15.5523 7 15 7H13C12.4477 7 12 7.44772 12 8V20C12 20.5523 12.4477 21 13 21H15C15.5523 21 16 20.5523 16 20V8Z" fill="white"/>
  <path d="M21 11C21 10.4477 20.5523 10 20 10H18C17.4477 10 17 10.4477 17 11V20C17 20.5523 17.4477 21 18 21H20C20.5523 21 21 20.5523 21 20V11Z" fill="white"/>
  <path d="M11 13C11 12.4477 10.5523 12 10 12H8C7.44772 12 7 12.4477 7 13V20C7 20.5523 7.44772 21 8 21H10C10.5523 21 11 20.5523 11 20V13Z" fill="white"/>
  <path d="M26 14C26 13.4477 25.5523 13 25 13H23C22.4477 13 22 13.4477 22 14V20C22 20.5523 22.4477 21 23 21H25C25.5523 21 26 20.5523 26 20V14Z" fill="white"/>
  <circle cx="16" cy="24" r="2" fill="white"/>
  <defs>
    <linearGradient id="gradient" x1="0" y1="0" x2="32" y2="32" gradientUnits="userSpaceOnUse">
      <stop stop-color="#3B82F6"/>
      <stop offset="1" stop-color="#8B5CF6"/>
    </linearGradient>
  </defs>
</svg>